<?xml version="1.0" encoding="utf-8"?>
<!-- Generator: Adobe Illustrator 16.0.0, SVG Export Plug-In . SVG Version: 6.00 Build 0)  -->
<!DOCTYPE svg PUBLIC "-//W3C//DTD SVG 1.1//EN" "http://www.w3.org/Graphics/SVG/1.1/DTD/svg11.dtd">
<svg version="1.1" id="Layer_1" xmlns="http://www.w3.org/2000/svg" xmlns:xlink="http://www.w3.org/1999/xlink" x="0px" y="0px"
	 width="140px" height="17px" viewBox="0 0 140 17" enable-background="new 0 0 140 17" xml:space="preserve">
<g>
	<path fill="#3F4148" d="M10.7,9.1l-8-2.7C2.5,6.4,2.4,6.1,2.4,5.9V3.8c0-0.9,0.7-1.5,1.6-1.5h4.8C9.4,2,9.9,1.3,9.9,0.5H4
		C2,0.5,0.4,1.7,0.4,3.7v2.5c0,0.7,0.5,1.4,1.1,1.6l8,2.7c0.2,0.1,0.4,0.3,0.4,0.5v1.9c0,0.9-0.7,1.6-1.5,1.6H0.7
		c-0.1,0-0.3,0.1-0.3,0.3v1.6h7.9c1.9,0,3.4-1.5,3.4-3.5v-2.3C11.8,10.1,11.3,9.3,10.7,9.1z"/>
	<path fill="#3F4148" d="M48.7,0.5h-1.5c-0.2,0-0.5,0.1-0.6,0.3l-5.2,9.7l-5.2-9.7c-0.1-0.2-0.4-0.3-0.6-0.3h-1.5
		c-0.1,0-0.3,0.1-0.3,0.3v15.7h1.7c0.1,0,0.3-0.1,0.3-0.3V3.8l4.3,8.4c0.1,0.1,0.2,0.3,0.4,0.3h1.5c0.2,0,0.3-0.1,0.4-0.3L47,3.8
		v12.4c0,0.1,0.1,0.3,0.3,0.3H49V0.8C49,0.7,48.8,0.5,48.7,0.5z"/>
	<path fill="#3F4148" d="M24.5,0.5H22c-0.7,0-1.4,0.5-1.6,1.2l-5.1,14.8H17c0.2,0,0.3-0.1,0.4-0.3l1.4-4.1h3.4
		c0.2-0.1,1.2-0.6,1.2-1.8h-4L22,2.6c0.1-0.2,0.2-0.3,0.4-0.3h1l2.7,7.9h0l0.6,1.8l1.4,4.1c0,0.1,0.2,0.3,0.4,0.3h1.7L24.7,0.7
		C24.7,0.6,24.6,0.5,24.5,0.5z"/>
	<path fill="#3F4148" d="M61.6,0.5h-6.3H55c-0.6,0-1.2,0.5-1.2,1.2v13.5c0,0.7,0.5,1.2,1.2,1.2h6.6c2,0,3.5-1.6,3.5-3.6V11
		c0-1-0.8-2.3-1.9-2.6c1.1-0.2,1.9-1.6,1.9-2.6V4.1C65.2,2.1,63.6,0.5,61.6,0.5z M63.2,5.8c0,0.9-0.7,1.6-1.6,1.6h-4.3
		c0,0.4,0.2,1.2,0.9,1.8h3.4c0.9,0,1.6,0.7,1.6,1.6V13c0,0.9-0.7,1.6-1.6,1.6h-5.5c-0.2,0-0.4-0.2-0.4-0.4V9.5h0V7.2h0V2.8
		c0-0.2,0.2-0.4,0.4-0.4h5.5c0.9,0,1.6,0.7,1.6,1.6V5.8z"/>
	<path fill="#3F4148" d="M78,0.5h-2.5c-0.8,0-1.4,0.5-1.6,1.2l-5.1,14.8h1.7c0.2,0,0.3-0.1,0.4-0.3l1.4-4.1h3.4
		c0.2-0.1,1.2-0.6,1.2-1.8h-4l2.6-7.7c0.1-0.2,0.2-0.3,0.4-0.3h1l2.7,7.9h0l0.6,1.8l1.4,4.1c0,0.1,0.2,0.3,0.4,0.3h1.7L78.2,0.7
		C78.2,0.6,78.1,0.5,78,0.5z"/>
	<path fill="#3F4148" d="M85.1,1.1v1.8h4.5v13.6h1.9c0.3,0,0.6-0.3,0.6-0.6v-13h2.7l0.1-0.1c0.3-0.2,0.9-0.8,1-2l0-0.3H85.6
		C85.3,0.5,85.1,0.8,85.1,1.1z"/>
	<path fill="#3F4148" d="M99.6,4.3v8.4c0,2.1,1.7,3.8,3.7,3.8h7v-1.8c0-0.3-0.3-0.6-0.6-0.6h-6.4c-0.7,0-1.2-0.5-1.2-1.2V9.7h3.5
		l0.1-0.1c0.4-0.3,0.8-0.9,0.9-2l0-0.4h-4.6V4.1c0-0.7,0.5-1.2,1.2-1.2h6.4c0.3,0,0.6-0.3,0.6-0.6V0.5h-7
		C101.3,0.5,99.6,2.2,99.6,4.3z"/>
	<path fill="#3F4148" d="M123.8,14.1h-6.3c-0.7,0-1.2-0.5-1.2-1.2V4.1c0-0.7,0.5-1.2,1.2-1.2h2.5l0.1-0.1c0.4-0.3,1-0.9,1.1-2l0-0.4
		h-3.7c-2,0-3.7,1.7-3.7,3.8v8.4c0,2.1,1.7,3.8,3.7,3.8h6.9v-1.8C124.3,14.3,124.1,14.1,123.8,14.1z"/>
	<path fill="#3F4148" d="M137.6,0.5c-0.3,0-0.6,0.3-0.6,0.6v14.8c0,0.3,0.3,0.6,0.6,0.6h1.9v-16H137.6z"/>
	<path fill="#3F4148" d="M130.6,1.1c0-0.3-0.3-0.6-0.6-0.6H128v16h1.9c0.3,0,0.6-0.3,0.6-0.6V9.7h3.1l0.1-0.1c0.4-0.3,1.1-0.9,1.2-2
		l0-0.4h-4.4V1.1z"/>
</g>
</svg>
